<?xml version="1.0" encoding="utf-8"?>
<!-- Generator: Adobe Illustrator 23.0.1, SVG Export Plug-In . SVG Version: 6.00 Build 0)  -->
<svg version="1.1"
	 id="Layer_1" xmlns:cc="http://creativecommons.org/ns#" xmlns:dc="http://purl.org/dc/elements/1.1/" xmlns:inkscape="http://www.inkscape.org/namespaces/inkscape" xmlns:rdf="http://www.w3.org/1999/02/22-rdf-syntax-ns#" xmlns:sodipodi="http://sodipodi.sourceforge.net/DTD/sodipodi-0.dtd" xmlns:svg="http://www.w3.org/2000/svg"
	 xmlns="http://www.w3.org/2000/svg" xmlns:xlink="http://www.w3.org/1999/xlink" x="0px" y="0px" viewBox="0 0 198 99"
	 style="enable-background:new 0 0 198 99;" xml:space="preserve">
<style type="text/css">
	.st0{fill:#191A22;}
	.st1{fill:#FF79C6;}
	.st2{display:none;}
	.st3{display:inline;fill:#21222D;}
	.st4{display:inline;fill:none;stroke:#F8F8F2;stroke-width:2.3049;stroke-miterlimit:10;}
	.st5{display:inline;fill:none;stroke:#6570A8;stroke-width:2.3049;stroke-miterlimit:10;}
	.st6{display:inline;fill:#F8F8F2;}
	.st7{display:inline;fill:#6570A8;}
	.st8{display:none;fill:#FF79C6;}
	.st9{display:none;fill:none;stroke:#FF79C6;stroke-width:1.9544;stroke-miterlimit:10;}
	.st10{fill:#21222D;}
	.st11{fill:#F8F8F2;}
	.st12{fill:#6570A8;}
	.st13{display:inline;fill:none;stroke:#F8F8F2;stroke-width:1.9544;stroke-miterlimit:10;}
	.st14{display:inline;fill:none;stroke:#6570A8;stroke-width:1.9544;stroke-miterlimit:10;}
</style>
<sodipodi:namedview  bordercolor="#666666" borderopacity="1" gridtolerance="10" guidetolerance="10" id="namedview323" inkscape:current-layer="Layer_1" inkscape:cx="45.252385" inkscape:cy="36.224987" inkscape:guide-bbox="true" inkscape:pageopacity="0" inkscape:pageshadow="2" inkscape:window-height="1000" inkscape:window-maximized="1" inkscape:window-width="1215" inkscape:window-x="65" inkscape:window-y="24" inkscape:zoom="4" objecttolerance="10" pagecolor="#ffffff" showgrid="false" showguides="true">
	</sodipodi:namedview>
<g id="g5" transform="translate(-0.12000084,0)">
	<circle id="circle7" class="st0" cx="16.6" cy="16.6" r="12"/>
	<g>
		<path class="st1" d="M7.9,17.2c-0.2-0.2-0.2-0.4-0.2-0.6s0.1-0.5,0.2-0.6l1.3-1.3c0.2-0.2,0.4-0.3,0.6-0.3s0.5,0.1,0.7,0.3
			l3.9,3.9l8.4-8.4c0.2-0.2,0.4-0.3,0.7-0.3s0.5,0.1,0.6,0.3l1.3,1.3c0.2,0.2,0.2,0.4,0.2,0.6s-0.1,0.5-0.2,0.6L15,23
			c-0.2,0.2-0.4,0.3-0.6,0.3s-0.5-0.1-0.6-0.3L7.9,17.2z"/>
	</g>
</g>
<g id="g11" transform="translate(-0.12000084,0)" class="st2">
	<circle id="circle13" class="st3" cx="16.6" cy="49.5" r="12"/>
	<polyline id="polyline15" class="st4" points="21.5,45.6 15.8,53.4 11.8,49.5 	"/>
</g>
<g id="g17" transform="translate(-0.12000084,0)" class="st2">
	<circle id="circle19" class="st3" cx="16.6" cy="82.5" r="12"/>
	<polyline id="polyline21" class="st5" points="21.5,78.6 15.8,86.4 11.8,82.5 	"/>
</g>
<g id="g23" transform="translate(-0.26100159,0)">
	<circle id="circle25" class="st0" cx="49.8" cy="16.6" r="12"/>
	<g>
		<path class="st1" d="M41.9,14.9c0-0.2,0.1-0.4,0.2-0.6s0.4-0.2,0.6-0.2h7v-3.7c0-0.2,0.1-0.4,0.2-0.6s0.4-0.2,0.6-0.2
			s0.4,0.1,0.6,0.2l6.2,6.2c0.2,0.2,0.2,0.4,0.2,0.6s-0.1,0.4-0.2,0.6l-6.2,6.2c-0.2,0.2-0.4,0.2-0.6,0.2s-0.4-0.1-0.6-0.2
			s-0.2-0.4-0.2-0.6v-3.7h-7c-0.2,0-0.4-0.1-0.6-0.2s-0.2-0.4-0.2-0.6V14.9z"/>
	</g>
</g>
<g id="g29" transform="translate(-0.26100159,0)" class="st2">
	<circle id="circle31" class="st3" cx="49.8" cy="49.5" r="12"/>
	<polygon id="polygon33" class="st6" points="45.4,48.2 49.3,48.2 49.3,44.4 54.7,49.7 49.3,55.1 49.3,51.4 45.4,51.4 	"/>
</g>
<g id="g35" transform="translate(-0.26100159,0)" class="st2">
	<circle id="circle37" class="st3" cx="49.8" cy="82.5" r="12"/>
	<polygon id="polygon39" class="st7" points="45.4,81.2 49.3,81.2 49.3,77.4 54.7,82.7 49.3,88.1 49.3,84.4 45.4,84.4 	"/>
</g>
<g id="g41" transform="translate(-0.54399872,0)">
	<rect id="rect43" x="105.5" y="6.1" class="st0" width="21" height="21"/>
	<polygon id="polygon45" class="st8" points="114.4,19.1 114.4,15.1 110.6,15.1 116,9.6 121.5,15.1 117.8,15.1 117.7,19.1 	"/>
	<rect id="rect47" x="110.5" y="22.2" class="st8" width="1" height="1"/>
	<rect id="rect49" x="112.5" y="22.2" class="st8" width="1" height="1"/>
	<rect id="rect51" x="114.5" y="22.2" class="st8" width="1" height="1"/>
	<rect id="rect53" x="116.5" y="22.2" class="st8" width="1" height="1"/>
	<rect id="rect55" x="118.5" y="22.2" class="st8" width="1" height="1"/>
	<rect id="rect57" x="120.5" y="22.2" class="st8" width="1" height="1"/>
	<g>
		<path class="st1" d="M111.3,15.5c-0.6,0-1.2,0.2-1.7,0.5s-0.9,0.7-1.2,1.2l-2.4,4.1v-9.8c0-0.5,0.2-0.9,0.5-1.2s0.7-0.5,1.2-0.5
			h5.6l2.2,2.2h5.6c0.5,0,0.9,0.2,1.2,0.5s0.5,0.7,0.5,1.2v1.7H111.3z M126.1,17.9c0.2-0.3,0.2-0.6,0-0.8s-0.4-0.4-0.7-0.4h-14.1
			c-0.4,0-0.8,0.1-1.1,0.3s-0.6,0.5-0.8,0.8l-2.6,4.4c-0.2,0.3-0.2,0.6,0,0.8s0.4,0.4,0.7,0.4h14.1c0.4,0,0.8-0.1,1.1-0.3
			s0.6-0.5,0.8-0.8L126.1,17.9z"/>
	</g>
</g>
<g id="g59" transform="translate(-0.68600464,0)">
	<rect id="rect61" x="138.7" y="6.1" class="st0" width="21" height="21"/>
	<polygon id="polygon63" class="st8" points="150.8,9.6 150.8,13.6 154.6,13.6 149.2,19.1 143.7,13.6 147.5,13.6 147.5,9.6 	"/>
	<rect id="rect65" x="143.7" y="22.2" class="st8" width="1" height="1"/>
	<rect id="rect67" x="145.7" y="22.2" class="st8" width="1" height="1"/>
	<rect id="rect69" x="147.7" y="22.2" class="st8" width="1" height="1"/>
	<rect id="rect71" x="149.7" y="22.2" class="st8" width="1" height="1"/>
	<rect id="rect73" x="151.7" y="22.2" class="st8" width="1" height="1"/>
	<rect id="rect75" x="153.7" y="22.2" class="st8" width="1" height="1"/>
	<g>
		<path class="st1" d="M156.6,12.2c0.3,0.3,0.5,0.7,0.5,1.2v9.4c0,0.5-0.2,0.9-0.5,1.2s-0.7,0.5-1.2,0.5H143c-0.5,0-0.9-0.2-1.2-0.5
			s-0.5-0.7-0.5-1.2V10.4c0-0.5,0.2-0.9,0.5-1.2s0.7-0.5,1.2-0.5h9.4c0.5,0,0.9,0.2,1.2,0.5L156.6,12.2z M152.6,11.5
			c0-0.1,0-0.2-0.1-0.3l-0.1-0.1c-0.1-0.1-0.2-0.1-0.3-0.1H144c-0.1,0-0.2,0-0.3,0.1s-0.1,0.2-0.1,0.3v3.7c0,0.1,0,0.2,0.1,0.3
			s0.2,0.1,0.3,0.1h8.2c0.1,0,0.2,0,0.3-0.1s0.1-0.2,0.1-0.3V11.5z M149.2,22.2c0.6,0,1.2-0.2,1.6-0.7s0.7-1,0.7-1.6
			s-0.2-1.2-0.7-1.6s-1-0.7-1.6-0.7s-1.2,0.2-1.6,0.7s-0.7,1-0.7,1.6s0.2,1.2,0.7,1.6S148.6,22.2,149.2,22.2z"/>
	</g>
</g>
<g id="g77" transform="translate(-0.54399872,0)" class="st2">
	<rect id="rect79" x="105.5" y="39" class="st3" width="21" height="21"/>
	<polygon id="polygon81" class="st6" points="114.4,51.9 114.4,48 110.6,48 116,42.5 121.5,47.9 117.8,47.9 117.7,51.9 	"/>
	<rect id="rect83" x="110.5" y="55" class="st6" width="1" height="1"/>
	<rect id="rect85" x="112.5" y="55" class="st6" width="1" height="1"/>
	<rect id="rect87" x="114.5" y="55" class="st6" width="1" height="1"/>
	<rect id="rect89" x="116.5" y="55" class="st6" width="1" height="1"/>
	<rect id="rect91" x="118.5" y="55" class="st6" width="1" height="1"/>
	<rect id="rect93" x="120.5" y="55" class="st6" width="1" height="1"/>
</g>
<g id="g95" transform="translate(-0.68600464,0)" class="st2">
	<rect id="rect97" x="138.7" y="39" class="st3" width="21" height="21"/>
	<polygon id="polygon99" class="st6" points="150.8,42.5 150.8,46.4 154.6,46.4 149.2,51.9 143.7,46.5 147.5,46.5 147.5,42.5 	"/>
	<rect id="rect101" x="143.7" y="55" class="st6" width="1" height="1"/>
	<rect id="rect103" x="145.7" y="55" class="st6" width="1" height="1"/>
	<rect id="rect105" x="147.7" y="55" class="st6" width="1" height="1"/>
	<rect id="rect107" x="149.7" y="55" class="st6" width="1" height="1"/>
	<rect id="rect109" x="151.7" y="55" class="st6" width="1" height="1"/>
	<rect id="rect111" x="153.7" y="55" class="st6" width="1" height="1"/>
</g>
<g id="g113" transform="translate(-0.54399872,0)" class="st2">
	<rect id="rect115" x="105.5" y="72" class="st3" width="21" height="21"/>
	<polygon id="polygon117" class="st7" points="114.4,84.9 114.4,81 110.6,81 116,75.5 121.5,81 117.8,81 117.7,84.9 	"/>
	<rect id="rect119" x="110.5" y="88.1" class="st7" width="1" height="1"/>
	<rect id="rect121" x="112.5" y="88.1" class="st7" width="1" height="1"/>
	<rect id="rect123" x="114.5" y="88.1" class="st7" width="1" height="1"/>
	<rect id="rect125" x="116.5" y="88.1" class="st7" width="1" height="1"/>
	<rect id="rect127" x="118.5" y="88.1" class="st7" width="1" height="1"/>
	<rect id="rect129" x="120.5" y="88.1" class="st7" width="1" height="1"/>
</g>
<g id="g131" transform="translate(-0.68600464,0)" class="st2">
	<rect id="rect133" x="138.7" y="72" class="st3" width="21" height="21"/>
	<polygon id="polygon135" class="st7" points="150.8,75.5 150.8,79.5 154.6,79.5 149.2,84.9 143.7,79.5 147.5,79.5 147.5,75.5 	"/>
	<rect id="rect137" x="143.7" y="88.1" class="st7" width="1" height="1"/>
	<rect id="rect139" x="145.7" y="88.1" class="st7" width="1" height="1"/>
	<rect id="rect141" x="147.7" y="88.1" class="st7" width="1" height="1"/>
	<rect id="rect143" x="149.7" y="88.1" class="st7" width="1" height="1"/>
	<rect id="rect145" x="151.7" y="88.1" class="st7" width="1" height="1"/>
	<rect id="rect147" x="153.7" y="88.1" class="st7" width="1" height="1"/>
</g>
<g id="g149" transform="translate(-0.40299988,0)">
	<path id="path151" inkscape:connector-curvature="0" class="st1" d="M87.4,22.1"/>
	<rect id="rect153" x="72.4" y="6.1" class="st0" width="21" height="21"/>
	<polygon id="polygon155" class="st8" points="83.4,10.1 84.4,10.1 88.4,14.1 88.4,15.1 87.4,15.1 83.4,15.1 	"/>
	<polygon id="polygon157" class="st8" points="78.4,11.1 78.4,22.1 87.4,22.1 87.4,14.9 88.4,14.9 88.4,23.1 77.4,23.1 77.4,10.1 
		83.6,10.1 83.6,11.1 	"/>
	<rect id="rect159" x="79.4" y="12.1" class="st8" width="1" height="1"/>
	<rect id="rect161" x="81.4" y="12.1" class="st8" width="1" height="1"/>
	<rect id="rect163" x="79.4" y="14.1" class="st8" width="1" height="1"/>
	<rect id="rect165" x="81.4" y="14.1" class="st8" width="1" height="1"/>
	<rect id="rect167" x="79.4" y="16.1" class="st8" width="1" height="1"/>
	<rect id="rect169" x="81.4" y="16.1" class="st8" width="1" height="1"/>
	<rect id="rect171" x="83.4" y="16.1" class="st8" width="1" height="1"/>
	<rect id="rect173" x="85.4" y="16.1" class="st8" width="1" height="1"/>
	<rect id="rect175" x="79.4" y="18.1" class="st8" width="1" height="1"/>
	<rect id="rect177" x="81.4" y="18.1" class="st8" width="1" height="1"/>
	<rect id="rect179" x="79.4" y="20.1" class="st8" width="1" height="1"/>
	<rect id="rect181" x="81.4" y="20.1" class="st8" width="1" height="1"/>
	<rect id="rect183" x="83.4" y="18.1" class="st8" width="1" height="1"/>
	<rect id="rect185" x="85.4" y="18.1" class="st8" width="1" height="1"/>
	<rect id="rect187" x="83.4" y="20.1" class="st8" width="1" height="1"/>
	<rect id="rect189" x="85.4" y="20.1" class="st8" width="1" height="1"/>
	<g>
		<path class="st1" d="M89.7,13.2v11.5c0,0.2-0.1,0.4-0.2,0.6s-0.4,0.2-0.6,0.2H77c-0.2,0-0.4-0.1-0.6-0.2s-0.2-0.4-0.2-0.6V8.5
			c0-0.2,0.1-0.4,0.2-0.6c0.2-0.2,0.4-0.2,0.6-0.2h7v4.8c0,0.2,0.1,0.4,0.2,0.6s0.4,0.2,0.6,0.2H89.7z M86.4,17.9
			c-0.1-0.1-0.2-0.1-0.3-0.1H84v-2.1c0-0.1,0-0.2-0.1-0.3s-0.2-0.1-0.3-0.1h-1.4c-0.1,0-0.2,0-0.3,0.1s-0.1,0.2-0.1,0.3v2.1h-2.1
			c-0.1,0-0.2,0-0.3,0.1s-0.1,0.2-0.1,0.3v1.4c0,0.1,0,0.2,0.1,0.3s0.2,0.1,0.3,0.1h2.1v2.1c0,0.1,0,0.2,0.1,0.3s0.2,0.1,0.3,0.1
			h1.4c0.1,0,0.2,0,0.3-0.1s0.1-0.2,0.1-0.3V20h2.1c0.1,0,0.2,0,0.3-0.1s0.1-0.2,0.1-0.3v-1.4C86.6,18,86.5,17.9,86.4,17.9z
			 M89.7,12.1h-4.5V7.6h0.2c0.2,0,0.4,0.1,0.6,0.2l3.4,3.4c0.2,0.2,0.2,0.4,0.2,0.6V12.1z"/>
	</g>
</g>
<g id="g191" transform="translate(-0.40299988,0)" class="st2">
	<path id="path193" inkscape:connector-curvature="0" class="st6" d="M87.4,55"/>
	<rect id="rect195" x="72.4" y="39" class="st3" width="21" height="21"/>
	<polygon id="polygon197" class="st6" points="83.4,43 84.4,43 88.4,46.9 88.4,47.9 87.4,47.9 83.4,47.9 	"/>
	<polygon id="polygon199" class="st6" points="78.4,43.9 78.4,55 87.4,55 87.4,47.7 88.4,47.7 88.4,56 77.4,56 77.4,43 83.6,43 
		83.6,44 	"/>
	<rect id="rect201" x="79.4" y="45" class="st6" width="1" height="1"/>
	<rect id="rect203" x="81.4" y="45" class="st6" width="1" height="1"/>
	<rect id="rect205" x="79.4" y="47" class="st6" width="1" height="1"/>
	<rect id="rect207" x="81.4" y="47" class="st6" width="1" height="1"/>
	<rect id="rect209" x="79.4" y="49" class="st6" width="1" height="1"/>
	<rect id="rect211" x="81.4" y="49" class="st6" width="1" height="1"/>
	<rect id="rect213" x="83.4" y="49" class="st6" width="1" height="1"/>
	<rect id="rect215" x="85.4" y="49" class="st6" width="1" height="1"/>
	<rect id="rect217" x="79.4" y="51" class="st6" width="1" height="1"/>
	<rect id="rect219" x="81.4" y="51" class="st6" width="1" height="1"/>
	<rect id="rect221" x="79.4" y="53" class="st6" width="1" height="1"/>
	<rect id="rect223" x="81.4" y="53" class="st6" width="1" height="1"/>
	<rect id="rect225" x="83.4" y="51" class="st6" width="1" height="1"/>
	<rect id="rect227" x="85.4" y="51" class="st6" width="1" height="1"/>
	<rect id="rect229" x="83.4" y="53" class="st6" width="1" height="1"/>
	<rect id="rect231" x="85.4" y="53" class="st6" width="1" height="1"/>
</g>
<g id="g233" transform="translate(-0.40299988,0)" class="st2">
	<path id="path235" inkscape:connector-curvature="0" class="st7" d="M87.4,88"/>
	<rect id="rect237" x="72.4" y="72" class="st3" width="21" height="21"/>
	<polygon id="polygon239" class="st7" points="83.4,76 84.4,76 88.4,79.9 88.4,80.9 87.4,80.9 83.4,80.9 	"/>
	<polygon id="polygon241" class="st7" points="78.4,77 78.4,88 87.4,88 87.4,80.7 88.4,80.7 88.4,89 77.4,89 77.4,76 83.6,76 
		83.6,77 	"/>
	<rect id="rect243" x="79.4" y="78" class="st7" width="1" height="1"/>
	<rect id="rect245" x="81.4" y="78" class="st7" width="1" height="1"/>
	<rect id="rect247" x="79.4" y="80" class="st7" width="1" height="1"/>
	<rect id="rect249" x="81.4" y="80" class="st7" width="1" height="1"/>
	<rect id="rect251" x="79.4" y="82" class="st7" width="1" height="1"/>
	<rect id="rect253" x="81.4" y="82" class="st7" width="1" height="1"/>
	<rect id="rect255" x="83.4" y="82" class="st7" width="1" height="1"/>
	<rect id="rect257" x="85.4" y="82" class="st7" width="1" height="1"/>
	<rect id="rect259" x="79.4" y="84" class="st7" width="1" height="1"/>
	<rect id="rect261" x="81.4" y="84" class="st7" width="1" height="1"/>
	<rect id="rect263" x="79.4" y="86" class="st7" width="1" height="1"/>
	<rect id="rect265" x="81.4" y="86" class="st7" width="1" height="1"/>
	<rect id="rect267" x="83.4" y="84" class="st7" width="1" height="1"/>
	<rect id="rect269" x="85.4" y="84" class="st7" width="1" height="1"/>
	<rect id="rect271" x="83.4" y="86" class="st7" width="1" height="1"/>
	<rect id="rect273" x="85.4" y="86" class="st7" width="1" height="1"/>
</g>
<g id="g275" transform="translate(-0.82800293,0)">
	<rect id="rect277" x="171.8" y="6.1" class="st0" width="21" height="21"/>
	<rect id="rect279" x="187.8" y="16.1" class="st8" width="1" height="1"/>
	<rect id="rect281" x="189.8" y="16.1" class="st8" width="1" height="1"/>
	<rect id="rect283" x="174.8" y="16.1" class="st8" width="1" height="1"/>
	<circle id="circle285" class="st9" cx="181.8" cy="16.1" r="4.1"/>
	
		<rect id="rect287" x="175" y="19.3" transform="matrix(0.7224 -0.6915 0.6915 0.7224 34.9244 128.2848)" class="st8" width="4.4" height="2.7"/>
	<rect id="rect289" x="180.8" y="15.1" class="st8" width="2" height="2"/>
	<path class="st1" d="M173.8,9.1h17c0.8,0,1.5,0.7,1.5,1.5v12c0,0.8-0.7,1.5-1.5,1.5h-17c-0.8,0-1.5-0.7-1.5-1.5v-12
		C172.3,9.8,173,9.1,173.8,9.1z"/>
	<g>
		<path class="st10" d="M177.1,20.9c-0.1,0.1-0.2,0.1-0.3,0.1s-0.3,0-0.3-0.1l-0.5-0.5c-0.1-0.1-0.1-0.2-0.1-0.3s0-0.3,0.1-0.3
			l3.2-3.2l-3.2-3.2c-0.1-0.1-0.1-0.2-0.1-0.3c0-0.1,0-0.3,0.1-0.3l0.5-0.5c0.1-0.1,0.2-0.1,0.3-0.1s0.3,0,0.3,0.1l4,4
			c0.1,0.1,0.1,0.2,0.1,0.3s0,0.3-0.1,0.3L177.1,20.9z M188.9,20c0-0.1,0-0.3-0.1-0.3s-0.2-0.1-0.3-0.1h-6.3c-0.1,0-0.3,0-0.3,0.1
			s-0.1,0.2-0.1,0.3v0.7c0,0.1,0,0.3,0.1,0.3s0.2,0.1,0.3,0.1h6.3c0.1,0,0.3,0,0.3-0.1s0.1-0.2,0.1-0.3V20z"/>
	</g>
</g>
<g id="g5_1_" transform="translate(-0.12000084,0)">
	<circle id="circle7_1_" class="st0" cx="16.6" cy="49.5" r="12"/>
	<g>
		<path class="st11" d="M7.9,50.1c-0.2-0.2-0.2-0.4-0.2-0.6s0.1-0.5,0.2-0.6l1.3-1.3c0.2-0.2,0.4-0.3,0.6-0.3s0.5,0.1,0.7,0.3
			l3.9,3.9l8.4-8.4c0.2-0.2,0.4-0.3,0.7-0.3s0.5,0.1,0.6,0.3l1.3,1.3c0.2,0.2,0.2,0.4,0.2,0.6s-0.1,0.5-0.2,0.6L15,55.9
			c-0.2,0.2-0.4,0.3-0.6,0.3s-0.5-0.1-0.6-0.3L7.9,50.1z"/>
	</g>
</g>
<g id="g23_1_" transform="translate(-0.26100159,0)">
	<circle id="circle25_1_" class="st0" cx="49.8" cy="49.5" r="12"/>
	<g>
		<path class="st11" d="M41.9,47.8c0-0.2,0.1-0.4,0.2-0.6s0.4-0.2,0.6-0.2h7v-3.7c0-0.2,0.1-0.4,0.2-0.6s0.4-0.2,0.6-0.2
			s0.4,0.1,0.6,0.2l6.2,6.2c0.2,0.2,0.2,0.4,0.2,0.6s-0.1,0.4-0.2,0.6l-6.2,6.2c-0.2,0.2-0.4,0.2-0.6,0.2s-0.4-0.1-0.6-0.2
			s-0.2-0.4-0.2-0.6V52h-7c-0.2,0-0.4-0.1-0.6-0.2s-0.2-0.4-0.2-0.6V47.8z"/>
	</g>
</g>
<g id="g41_1_" transform="translate(-0.54399872,0)">
	<rect id="rect43_1_" x="105.5" y="39" class="st0" width="21" height="21"/>
	<polygon id="polygon45_1_" class="st8" points="114.4,51.9 114.4,48 110.6,48 116,42.5 121.5,47.9 117.8,47.9 117.7,51.9 	"/>
	<rect id="rect47_1_" x="110.5" y="55" class="st8" width="1" height="1"/>
	<rect id="rect49_1_" x="112.5" y="55" class="st8" width="1" height="1"/>
	<rect id="rect51_1_" x="114.5" y="55" class="st8" width="1" height="1"/>
	<rect id="rect53_1_" x="116.5" y="55" class="st8" width="1" height="1"/>
	<rect id="rect55_1_" x="118.5" y="55" class="st8" width="1" height="1"/>
	<rect id="rect57_1_" x="120.5" y="55" class="st8" width="1" height="1"/>
	<g>
		<path class="st11" d="M111.3,48.3c-0.6,0-1.2,0.2-1.7,0.5s-0.9,0.7-1.2,1.2l-2.4,4.1v-9.8c0-0.5,0.2-0.9,0.5-1.2s0.7-0.5,1.2-0.5
			h5.6l2.2,2.2h5.6c0.5,0,0.9,0.2,1.2,0.5s0.5,0.7,0.5,1.2v1.7H111.3z M126.1,50.7c0.2-0.3,0.2-0.6,0-0.8c-0.2-0.3-0.4-0.4-0.7-0.4
			h-14.1c-0.4,0-0.8,0.1-1.1,0.3s-0.6,0.5-0.8,0.8l-2.6,4.4c-0.2,0.3-0.2,0.6,0,0.8s0.4,0.4,0.7,0.4h14.1c0.4,0,0.8-0.1,1.1-0.3
			s0.6-0.5,0.8-0.8L126.1,50.7z"/>
	</g>
</g>
<g id="g59_1_" transform="translate(-0.68600464,0)">
	<rect id="rect61_1_" x="138.7" y="39" class="st0" width="21" height="21"/>
	<polygon id="polygon63_1_" class="st8" points="150.8,42.5 150.8,46.4 154.6,46.4 149.2,51.9 143.7,46.5 147.5,46.5 147.5,42.5 	
		"/>
	<rect id="rect65_1_" x="143.7" y="55" class="st8" width="1" height="1"/>
	<rect id="rect67_1_" x="145.7" y="55" class="st8" width="1" height="1"/>
	<rect id="rect69_1_" x="147.7" y="55" class="st8" width="1" height="1"/>
	<rect id="rect71_1_" x="149.7" y="55" class="st8" width="1" height="1"/>
	<rect id="rect73_1_" x="151.7" y="55" class="st8" width="1" height="1"/>
	<rect id="rect75_1_" x="153.7" y="55" class="st8" width="1" height="1"/>
	<g>
		<path class="st11" d="M156.6,45c0.3,0.3,0.5,0.7,0.5,1.2v9.4c0,0.5-0.2,0.9-0.5,1.2s-0.7,0.5-1.2,0.5H143c-0.5,0-0.9-0.2-1.2-0.5
			s-0.5-0.7-0.5-1.2V43.3c0-0.5,0.2-0.9,0.5-1.2s0.7-0.5,1.2-0.5h9.4c0.5,0,0.9,0.2,1.2,0.5L156.6,45z M152.6,44.4
			c0-0.1,0-0.2-0.1-0.3l-0.1-0.1c-0.1-0.1-0.2-0.1-0.3-0.1H144c-0.1,0-0.2,0-0.3,0.1s-0.1,0.2-0.1,0.3v3.7c0,0.1,0,0.2,0.1,0.3
			s0.2,0.1,0.3,0.1h8.2c0.1,0,0.2,0,0.3-0.1s0.1-0.2,0.1-0.3V44.4z M149.2,55.1c0.6,0,1.2-0.2,1.6-0.7s0.7-1,0.7-1.6
			s-0.2-1.2-0.7-1.6s-1-0.7-1.6-0.7s-1.2,0.2-1.6,0.7s-0.7,1-0.7,1.6s0.2,1.2,0.7,1.6S148.6,55.1,149.2,55.1z"/>
	</g>
</g>
<g id="g149_1_" transform="translate(-0.40299988,0)">
	<path id="path151_1_" inkscape:connector-curvature="0" class="st1" d="M87.4,55"/>
	<rect id="rect153_1_" x="72.4" y="39" class="st0" width="21" height="21"/>
	<polygon id="polygon155_1_" class="st8" points="83.4,43 84.4,43 88.4,46.9 88.4,47.9 87.4,47.9 83.4,47.9 	"/>
	<polygon id="polygon157_1_" class="st8" points="78.4,43.9 78.4,55 87.4,55 87.4,47.7 88.4,47.7 88.4,56 77.4,56 77.4,43 83.6,43 
		83.6,43.9 	"/>
	<rect id="rect159_1_" x="79.4" y="45" class="st8" width="1" height="1"/>
	<rect id="rect161_1_" x="81.4" y="45" class="st8" width="1" height="1"/>
	<rect id="rect163_1_" x="79.4" y="47" class="st8" width="1" height="1"/>
	<rect id="rect165_1_" x="81.4" y="47" class="st8" width="1" height="1"/>
	<rect id="rect167_1_" x="79.4" y="49" class="st8" width="1" height="1"/>
	<rect id="rect169_1_" x="81.4" y="49" class="st8" width="1" height="1"/>
	<rect id="rect171_1_" x="83.4" y="49" class="st8" width="1" height="1"/>
	<rect id="rect173_1_" x="85.4" y="49" class="st8" width="1" height="1"/>
	<rect id="rect175_1_" x="79.4" y="51" class="st8" width="1" height="1"/>
	<rect id="rect177_1_" x="81.4" y="51" class="st8" width="1" height="1"/>
	<rect id="rect179_1_" x="79.4" y="53" class="st8" width="1" height="1"/>
	<rect id="rect181_1_" x="81.4" y="53" class="st8" width="1" height="1"/>
	<rect id="rect183_1_" x="83.4" y="51" class="st8" width="1" height="1"/>
	<rect id="rect185_1_" x="85.4" y="51" class="st8" width="1" height="1"/>
	<rect id="rect187_1_" x="83.4" y="53" class="st8" width="1" height="1"/>
	<rect id="rect189_1_" x="85.4" y="53" class="st8" width="1" height="1"/>
	<g>
		<path class="st11" d="M89.7,46.1v11.5c0,0.2-0.1,0.4-0.2,0.6s-0.4,0.2-0.6,0.2H77c-0.2,0-0.4-0.1-0.6-0.2s-0.2-0.4-0.2-0.6V41.3
			c0-0.2,0.1-0.4,0.2-0.6s0.4-0.2,0.6-0.2h7v4.8c0,0.2,0.1,0.4,0.2,0.6s0.4,0.2,0.6,0.2H89.7z M86.4,50.7c-0.1-0.1-0.2-0.1-0.3-0.1
			H84v-2.1c0-0.1,0-0.2-0.1-0.3s-0.2-0.1-0.3-0.1h-1.4c-0.1,0-0.2,0-0.3,0.1s-0.1,0.2-0.1,0.3v2.1h-2.1c-0.1,0-0.2,0-0.3,0.1
			s-0.1,0.2-0.1,0.3v1.4c0,0.1,0,0.2,0.1,0.3s0.2,0.1,0.3,0.1h2.1v2.1c0,0.1,0,0.2,0.1,0.3s0.2,0.1,0.3,0.1h1.4c0.1,0,0.2,0,0.3-0.1
			s0.1-0.2,0.1-0.3v-2.1h2.1c0.1,0,0.2,0,0.3-0.1s0.1-0.2,0.1-0.3V51C86.6,50.9,86.5,50.8,86.4,50.7z M89.7,45h-4.5v-4.5h0.2
			c0.2,0,0.4,0.1,0.6,0.2l3.4,3.4c0.2,0.2,0.2,0.4,0.2,0.6V45z"/>
	</g>
</g>
<g id="g275_1_" transform="translate(-0.82800293,0)">
	<rect id="rect277_1_" x="171.8" y="39" class="st0" width="21" height="21"/>
	<rect id="rect279_1_" x="187.8" y="49" class="st8" width="1" height="1"/>
	<rect id="rect281_1_" x="189.8" y="49" class="st8" width="1" height="1"/>
	<rect id="rect283_1_" x="174.8" y="49" class="st8" width="1" height="1"/>
	<circle id="circle285_1_" class="st9" cx="181.8" cy="49" r="4.1"/>
	
		<rect id="rect287_1_" x="175" y="52.2" transform="matrix(0.7224 -0.6915 0.6915 0.7224 12.2048 137.406)" class="st8" width="4.4" height="2.7"/>
	<rect id="rect289_1_" x="180.8" y="48" class="st8" width="2" height="2"/>
	<path class="st11" d="M173.8,42h17c0.8,0,1.5,0.7,1.5,1.5v12c0,0.8-0.7,1.5-1.5,1.5h-17c-0.8,0-1.5-0.7-1.5-1.5v-12
		C172.3,42.6,173,42,173.8,42z"/>
	<g>
		<path class="st10" d="M177.1,53.7c-0.1,0.1-0.2,0.1-0.3,0.1s-0.3,0-0.3-0.1l-0.5-0.5c-0.1-0.1-0.1-0.2-0.1-0.3
			c0-0.1,0-0.3,0.1-0.3l3.2-3.2l-3.2-3.2c-0.1-0.1-0.1-0.2-0.1-0.3c0-0.1,0-0.3,0.1-0.3l0.5-0.5c0.1-0.1,0.2-0.1,0.3-0.1
			s0.3,0,0.3,0.1l4,4c0.1,0.1,0.1,0.2,0.1,0.3c0,0.1,0,0.3-0.1,0.3L177.1,53.7z M188.9,52.9c0-0.1,0-0.3-0.1-0.3
			c-0.1-0.1-0.2-0.1-0.3-0.1h-6.3c-0.1,0-0.3,0-0.3,0.1c-0.1,0.1-0.1,0.2-0.1,0.3v0.7c0,0.1,0,0.3,0.1,0.3c0.1,0.1,0.2,0.1,0.3,0.1
			h6.3c0.1,0,0.3,0,0.3-0.1c0.1-0.1,0.1-0.2,0.1-0.3V52.9z"/>
	</g>
</g>
<g id="g5_2_" transform="translate(-0.12000084,0)">
	<circle id="circle7_2_" class="st0" cx="16.6" cy="82.5" r="12"/>
	<g>
		<path class="st12" d="M7.9,83.1c-0.2-0.2-0.2-0.4-0.2-0.6s0.1-0.5,0.2-0.6l1.3-1.3c0.2-0.2,0.4-0.3,0.6-0.3s0.5,0.1,0.7,0.3
			l3.9,3.9l8.4-8.4c0.2-0.2,0.4-0.3,0.7-0.3s0.5,0.1,0.6,0.3l1.3,1.3c0.2,0.2,0.2,0.4,0.2,0.6s-0.1,0.5-0.2,0.6L15,88.9
			c-0.2,0.2-0.4,0.3-0.6,0.3s-0.5-0.1-0.6-0.3L7.9,83.1z"/>
	</g>
</g>
<g id="g23_2_" transform="translate(-0.26100159,0)">
	<circle id="circle25_2_" class="st0" cx="49.8" cy="82.5" r="12"/>
	<g>
		<path class="st12" d="M41.9,80.8c0-0.2,0.1-0.4,0.2-0.6s0.4-0.2,0.6-0.2h7v-3.7c0-0.2,0.1-0.4,0.2-0.6s0.4-0.2,0.6-0.2
			s0.4,0.1,0.6,0.2l6.2,6.2c0.2,0.2,0.2,0.4,0.2,0.6s-0.1,0.4-0.2,0.6l-6.2,6.2c-0.2,0.2-0.4,0.2-0.6,0.2s-0.4-0.1-0.6-0.2
			s-0.2-0.4-0.2-0.6V85h-7c-0.2,0-0.4-0.1-0.6-0.2s-0.2-0.4-0.2-0.6V80.8z"/>
	</g>
</g>
<g id="g41_2_" transform="translate(-0.54399872,0)">
	<rect id="rect43_2_" x="105.5" y="72" class="st0" width="21" height="21"/>
	<polygon id="polygon45_2_" class="st8" points="114.4,85 114.4,81 110.6,81 116,75.5 121.5,81 117.8,81 117.7,85 	"/>
	<rect id="rect47_2_" x="110.5" y="88.1" class="st8" width="1" height="1"/>
	<rect id="rect49_2_" x="112.5" y="88.1" class="st8" width="1" height="1"/>
	<rect id="rect51_2_" x="114.5" y="88.1" class="st8" width="1" height="1"/>
	<rect id="rect53_2_" x="116.5" y="88.1" class="st8" width="1" height="1"/>
	<rect id="rect55_2_" x="118.5" y="88.1" class="st8" width="1" height="1"/>
	<rect id="rect57_2_" x="120.5" y="88.1" class="st8" width="1" height="1"/>
	<g>
		<path class="st12" d="M111.3,81.4c-0.6,0-1.2,0.2-1.7,0.5s-0.9,0.7-1.2,1.2l-2.4,4.1v-9.8c0-0.5,0.2-0.9,0.5-1.2s0.7-0.5,1.2-0.5
			h5.6l2.2,2.2h5.6c0.5,0,0.9,0.2,1.2,0.5s0.5,0.7,0.5,1.2v1.7H111.3z M126.1,83.7c0.2-0.3,0.2-0.6,0-0.8s-0.4-0.4-0.7-0.4h-14.1
			c-0.4,0-0.8,0.1-1.1,0.3s-0.6,0.5-0.8,0.8l-2.6,4.4c-0.2,0.3-0.2,0.6,0,0.8s0.4,0.4,0.7,0.4h14.1c0.4,0,0.8-0.1,1.1-0.3
			s0.6-0.5,0.8-0.8L126.1,83.7z"/>
	</g>
</g>
<g id="g59_2_" transform="translate(-0.68600464,0)">
	<rect id="rect61_2_" x="138.7" y="72" class="st0" width="21" height="21"/>
	<polygon id="polygon63_2_" class="st8" points="150.8,75.5 150.8,79.5 154.6,79.5 149.2,85 143.7,79.5 147.5,79.5 147.5,75.5 	"/>
	<rect id="rect65_2_" x="143.7" y="88.1" class="st8" width="1" height="1"/>
	<rect id="rect67_2_" x="145.7" y="88.1" class="st8" width="1" height="1"/>
	<rect id="rect69_2_" x="147.7" y="88.1" class="st8" width="1" height="1"/>
	<rect id="rect71_2_" x="149.7" y="88.1" class="st8" width="1" height="1"/>
	<rect id="rect73_2_" x="151.7" y="88.1" class="st8" width="1" height="1"/>
	<rect id="rect75_2_" x="153.7" y="88.1" class="st8" width="1" height="1"/>
	<g>
		<path class="st12" d="M156.6,78c0.3,0.3,0.5,0.7,0.5,1.2v9.4c0,0.5-0.2,0.9-0.5,1.2s-0.7,0.5-1.2,0.5H143c-0.5,0-0.9-0.2-1.2-0.5
			s-0.5-0.7-0.5-1.2V76.3c0-0.5,0.2-0.9,0.5-1.2s0.7-0.5,1.2-0.5h9.4c0.5,0,0.9,0.2,1.2,0.5L156.6,78z M152.6,77.4
			c0-0.1,0-0.2-0.1-0.3l-0.1-0.1c-0.1-0.1-0.2-0.1-0.3-0.1H144c-0.1,0-0.2,0-0.3,0.1s-0.1,0.2-0.1,0.3v3.7c0,0.1,0,0.2,0.1,0.3
			s0.2,0.1,0.3,0.1h8.2c0.1,0,0.2,0,0.3-0.1s0.1-0.2,0.1-0.3V77.4z M149.2,88.1c0.6,0,1.2-0.2,1.6-0.7s0.7-1,0.7-1.6
			s-0.2-1.2-0.7-1.6s-1-0.7-1.6-0.7s-1.2,0.2-1.6,0.7s-0.7,1-0.7,1.6s0.2,1.2,0.7,1.6S148.6,88.1,149.2,88.1z"/>
	</g>
</g>
<g id="g149_2_" transform="translate(-0.40299988,0)">
	<path id="path151_2_" inkscape:connector-curvature="0" class="st1" d="M87.4,88"/>
	<rect id="rect153_2_" x="72.4" y="72" class="st0" width="21" height="21"/>
	<polygon id="polygon155_2_" class="st8" points="83.4,76 84.4,76 88.4,79.9 88.4,80.9 87.4,80.9 83.4,80.9 	"/>
	<polygon id="polygon157_2_" class="st8" points="78.4,77 78.4,88 87.4,88 87.4,80.7 88.4,80.7 88.4,89 77.4,89 77.4,76 83.6,76 
		83.6,77 	"/>
	<rect id="rect159_2_" x="79.4" y="78" class="st8" width="1" height="1"/>
	<rect id="rect161_2_" x="81.4" y="78" class="st8" width="1" height="1"/>
	<rect id="rect163_2_" x="79.4" y="80" class="st8" width="1" height="1"/>
	<rect id="rect165_2_" x="81.4" y="80" class="st8" width="1" height="1"/>
	<rect id="rect167_2_" x="79.4" y="82" class="st8" width="1" height="1"/>
	<rect id="rect169_2_" x="81.4" y="82" class="st8" width="1" height="1"/>
	<rect id="rect171_2_" x="83.4" y="82" class="st8" width="1" height="1"/>
	<rect id="rect173_2_" x="85.4" y="82" class="st8" width="1" height="1"/>
	<rect id="rect175_2_" x="79.4" y="84" class="st8" width="1" height="1"/>
	<rect id="rect177_2_" x="81.4" y="84" class="st8" width="1" height="1"/>
	<rect id="rect179_2_" x="79.4" y="86" class="st8" width="1" height="1"/>
	<rect id="rect181_2_" x="81.4" y="86" class="st8" width="1" height="1"/>
	<rect id="rect183_2_" x="83.4" y="84" class="st8" width="1" height="1"/>
	<rect id="rect185_2_" x="85.4" y="84" class="st8" width="1" height="1"/>
	<rect id="rect187_2_" x="83.4" y="86" class="st8" width="1" height="1"/>
	<rect id="rect189_2_" x="85.4" y="86" class="st8" width="1" height="1"/>
	<g>
		<path class="st12" d="M89.7,79.1v11.5c0,0.2-0.1,0.4-0.2,0.6s-0.4,0.2-0.6,0.2H77c-0.2,0-0.4-0.1-0.6-0.2s-0.2-0.4-0.2-0.6V74.3
			c0-0.2,0.1-0.4,0.2-0.6s0.4-0.2,0.6-0.2h7v4.8c0,0.2,0.1,0.4,0.2,0.6s0.4,0.2,0.6,0.2H89.7z M86.4,83.7c-0.1-0.1-0.2-0.1-0.3-0.1
			H84v-2.1c0-0.1,0-0.2-0.1-0.3s-0.2-0.1-0.3-0.1h-1.4c-0.1,0-0.2,0-0.3,0.1s-0.1,0.2-0.1,0.3v2.1h-2.1c-0.1,0-0.2,0-0.3,0.1
			s-0.1,0.2-0.1,0.3v1.4c0,0.1,0,0.2,0.1,0.3s0.2,0.1,0.3,0.1h2.1V88c0,0.1,0,0.2,0.1,0.3s0.2,0.1,0.3,0.1h1.4c0.1,0,0.2,0,0.3-0.1
			S84,88.1,84,88v-2.1h2.1c0.1,0,0.2,0,0.3-0.1s0.1-0.2,0.1-0.3V84C86.6,83.9,86.5,83.8,86.4,83.7z M89.7,78h-4.5v-4.5h0.2
			c0.2,0,0.4,0.1,0.6,0.2l3.4,3.4c0.2,0.2,0.2,0.4,0.2,0.6V78z"/>
	</g>
</g>
<g id="g275_2_" transform="translate(-0.82800293,0)">
	<rect id="rect277_2_" x="171.8" y="72" class="st0" width="21" height="21"/>
	<rect id="rect279_2_" x="187.8" y="82" class="st8" width="1" height="1"/>
	<rect id="rect281_2_" x="189.8" y="82" class="st8" width="1" height="1"/>
	<rect id="rect283_2_" x="174.8" y="82" class="st8" width="1" height="1"/>
	<circle id="circle285_2_" class="st9" cx="181.8" cy="82" r="4.1"/>
	
		<rect id="rect287_2_" x="175" y="85.2" transform="matrix(0.7224 -0.6915 0.6915 0.7224 -10.6226 146.5706)" class="st8" width="4.4" height="2.7"/>
	<rect id="rect289_2_" x="180.8" y="81" class="st8" width="2" height="2"/>
	<path class="st12" d="M173.8,75h17c0.8,0,1.5,0.7,1.5,1.5v12c0,0.8-0.7,1.5-1.5,1.5h-17c-0.8,0-1.5-0.7-1.5-1.5v-12
		C172.3,75.6,173,75,173.8,75z"/>
	<g>
		<path class="st10" d="M177.1,86.8c-0.1,0.1-0.2,0.1-0.3,0.1s-0.3,0-0.3-0.1l-0.5-0.5c-0.1-0.1-0.1-0.2-0.1-0.3
			c0-0.1,0-0.3,0.1-0.3l3.2-3.2l-3.2-3.2c-0.1-0.1-0.1-0.2-0.1-0.3c0-0.1,0-0.3,0.1-0.3l0.5-0.5c0.1-0.1,0.2-0.1,0.3-0.1
			s0.3,0,0.3,0.1l4,4c0.1,0.1,0.1,0.2,0.1,0.3c0,0.1,0,0.3-0.1,0.3L177.1,86.8z M188.9,85.9c0-0.1,0-0.3-0.1-0.3
			c-0.1-0.1-0.2-0.1-0.3-0.1h-6.3c-0.1,0-0.3,0-0.3,0.1c-0.1,0.1-0.1,0.2-0.1,0.3v0.7c0,0.1,0,0.3,0.1,0.3s0.2,0.1,0.3,0.1h6.3
			c0.1,0,0.3,0,0.3-0.1c0.1-0.1,0.1-0.2,0.1-0.3V85.9z"/>
	</g>
</g>
<g id="g291" transform="translate(-0.82800293,0)" class="st2">
	<rect id="rect293" x="171.8" y="39" class="st3" width="21" height="21"/>
	<rect id="rect295" x="187.8" y="49" class="st6" width="1" height="1"/>
	<rect id="rect297" x="189.8" y="49" class="st6" width="1" height="1"/>
	<rect id="rect299" x="174.8" y="49" class="st6" width="1" height="1"/>
	<circle id="circle301" class="st13" cx="181.8" cy="49" r="4.1"/>
	
		<rect id="rect303" x="175" y="52.2" transform="matrix(0.7224 -0.6915 0.6915 0.7224 12.2049 137.4047)" class="st6" width="4.4" height="2.7"/>
	<rect id="rect305" x="180.8" y="48" class="st6" width="2" height="2"/>
</g>
<g id="g307" transform="translate(-0.82800293,0)" class="st2">
	<rect id="rect309" x="171.8" y="72" class="st3" width="21" height="21"/>
	<rect id="rect311" x="187.8" y="82" class="st7" width="1" height="1"/>
	<rect id="rect313" x="189.8" y="82" class="st7" width="1" height="1"/>
	<rect id="rect315" x="174.8" y="82" class="st7" width="1" height="1"/>
	<circle id="circle317" class="st14" cx="181.8" cy="82" r="4.1"/>
	
		<rect id="rect319" x="175" y="85.2" transform="matrix(0.7224 -0.6915 0.6915 0.7224 -10.6224 146.5679)" class="st7" width="4.4" height="2.7"/>
	<rect id="rect321" x="180.8" y="81" class="st7" width="2" height="2"/>
</g>
</svg>
