<svg xmlns="http://www.w3.org/2000/svg" xmlns:svg="http://www.w3.org/2000/svg" xmlns:xlink="http://www.w3.org/1999/xlink" id="Layer_1" x="0" y="0" version="1.1" viewBox="0 0 198 99" xml:space="preserve" style="enable-background:new 0 0 198 99"><style type="text/css">.st0{fill:#191a22}.st1{fill:#ff79c6}.st2{display:none}.st3,.st4,.st5{display:inline;fill:#21222d}.st4,.st5{fill:none;stroke:#f8f8f2;stroke-width:2.3049;stroke-miterlimit:10}.st5{stroke:#6570a8}.st6,.st7{display:inline;fill:#f8f8f2}.st7{fill:#6570a8}.st8,.st9{display:none;fill:#ff79c6}.st9{fill:none;stroke:#ff79c6;stroke-width:1.9544;stroke-miterlimit:10}.st10{fill:#21222d}.st11{fill:#f8f8f2}.st12{fill:#6570a8}.st13,.st14{display:inline;fill:none;stroke:#f8f8f2;stroke-width:1.9544;stroke-miterlimit:10}.st14{stroke:#6570a8}</style><g id="g5" transform="translate(-0.12000084,0)"><circle id="circle7" cx="16.6" cy="16.6" r="12" class="st0"/><g><path d="M7.9,17.2c-0.2-0.2-0.2-0.4-0.2-0.6s0.1-0.5,0.2-0.6l1.3-1.3c0.2-0.2,0.4-0.3,0.6-0.3s0.5,0.1,0.7,0.3 l3.9,3.9l8.4-8.4c0.2-0.2,0.4-0.3,0.7-0.3s0.5,0.1,0.6,0.3l1.3,1.3c0.2,0.2,0.2,0.4,0.2,0.6s-0.1,0.5-0.2,0.6L15,23 c-0.2,0.2-0.4,0.3-0.6,0.3s-0.5-0.1-0.6-0.3L7.9,17.2z" class="st1"/></g></g><g id="g11" class="st2" transform="translate(-0.12000084,0)"><circle id="circle13" cx="16.6" cy="49.5" r="12" class="st3"/><polyline id="polyline15" points="21.5 45.6 15.8 53.4 11.8 49.5" class="st4"/></g><g id="g17" class="st2" transform="translate(-0.12000084,0)"><circle id="circle19" cx="16.6" cy="82.5" r="12" class="st3"/><polyline id="polyline21" points="21.5 78.6 15.8 86.4 11.8 82.5" class="st5"/></g><g id="g23" transform="translate(-0.26100159,0)"><circle id="circle25" cx="49.8" cy="16.6" r="12" class="st0"/><g><path d="M41.9,14.9c0-0.2,0.1-0.4,0.2-0.6s0.4-0.2,0.6-0.2h7v-3.7c0-0.2,0.1-0.4,0.2-0.6s0.4-0.2,0.6-0.2 s0.4,0.1,0.6,0.2l6.2,6.2c0.2,0.2,0.2,0.4,0.2,0.6s-0.1,0.4-0.2,0.6l-6.2,6.2c-0.2,0.2-0.4,0.2-0.6,0.2s-0.4-0.1-0.6-0.2 s-0.2-0.4-0.2-0.6v-3.7h-7c-0.2,0-0.4-0.1-0.6-0.2s-0.2-0.4-0.2-0.6V14.9z" class="st1"/></g></g><g id="g29" class="st2" transform="translate(-0.26100159,0)"><circle id="circle31" cx="49.8" cy="49.5" r="12" class="st3"/><polygon id="polygon33" points="45.4 48.2 49.3 48.2 49.3 44.4 54.7 49.7 49.3 55.1 49.3 51.4 45.4 51.4" class="st6"/></g><g id="g35" class="st2" transform="translate(-0.26100159,0)"><circle id="circle37" cx="49.8" cy="82.5" r="12" class="st3"/><polygon id="polygon39" points="45.4 81.2 49.3 81.2 49.3 77.4 54.7 82.7 49.3 88.1 49.3 84.4 45.4 84.4" class="st7"/></g><g id="g41" transform="translate(-0.54399872,0)"><rect id="rect43" width="21" height="21" x="105.5" y="6.1" class="st0"/><polygon id="polygon45" points="114.4 19.1 114.4 15.1 110.6 15.1 116 9.6 121.5 15.1 117.8 15.1 117.7 19.1" class="st8"/><rect id="rect47" width="1" height="1" x="110.5" y="22.2" class="st8"/><rect id="rect49" width="1" height="1" x="112.5" y="22.2" class="st8"/><rect id="rect51" width="1" height="1" x="114.5" y="22.2" class="st8"/><rect id="rect53" width="1" height="1" x="116.5" y="22.2" class="st8"/><rect id="rect55" width="1" height="1" x="118.5" y="22.2" class="st8"/><rect id="rect57" width="1" height="1" x="120.5" y="22.2" class="st8"/><g><path d="M111.3,15.5c-0.6,0-1.2,0.2-1.7,0.5s-0.9,0.7-1.2,1.2l-2.4,4.1v-9.8c0-0.5,0.2-0.9,0.5-1.2s0.7-0.5,1.2-0.5 h5.6l2.2,2.2h5.6c0.5,0,0.9,0.2,1.2,0.5s0.5,0.7,0.5,1.2v1.7H111.3z M126.1,17.9c0.2-0.3,0.2-0.6,0-0.8s-0.4-0.4-0.7-0.4h-14.1 c-0.4,0-0.8,0.1-1.1,0.3s-0.6,0.5-0.8,0.8l-2.6,4.4c-0.2,0.3-0.2,0.6,0,0.8s0.4,0.4,0.7,0.4h14.1c0.4,0,0.8-0.1,1.1-0.3 s0.6-0.5,0.8-0.8L126.1,17.9z" class="st1"/></g></g><g id="g59" transform="translate(-0.68600464,0)"><rect id="rect61" width="21" height="21" x="138.7" y="6.1" class="st0"/><polygon id="polygon63" points="150.8 9.6 150.8 13.6 154.6 13.6 149.2 19.1 143.7 13.6 147.5 13.6 147.5 9.6" class="st8"/><rect id="rect65" width="1" height="1" x="143.7" y="22.2" class="st8"/><rect id="rect67" width="1" height="1" x="145.7" y="22.2" class="st8"/><rect id="rect69" width="1" height="1" x="147.7" y="22.2" class="st8"/><rect id="rect71" width="1" height="1" x="149.7" y="22.2" class="st8"/><rect id="rect73" width="1" height="1" x="151.7" y="22.2" class="st8"/><rect id="rect75" width="1" height="1" x="153.7" y="22.2" class="st8"/><g><path d="M156.6,12.2c0.3,0.3,0.5,0.7,0.5,1.2v9.4c0,0.5-0.2,0.9-0.5,1.2s-0.7,0.5-1.2,0.5H143c-0.5,0-0.9-0.2-1.2-0.5 s-0.5-0.7-0.5-1.2V10.4c0-0.5,0.2-0.9,0.5-1.2s0.7-0.5,1.2-0.5h9.4c0.5,0,0.9,0.2,1.2,0.5L156.6,12.2z M152.6,11.5 c0-0.1,0-0.2-0.1-0.3l-0.1-0.1c-0.1-0.1-0.2-0.1-0.3-0.1H144c-0.1,0-0.2,0-0.3,0.1s-0.1,0.2-0.1,0.3v3.7c0,0.1,0,0.2,0.1,0.3 s0.2,0.1,0.3,0.1h8.2c0.1,0,0.2,0,0.3-0.1s0.1-0.2,0.1-0.3V11.5z M149.2,22.2c0.6,0,1.2-0.2,1.6-0.7s0.7-1,0.7-1.6 s-0.2-1.2-0.7-1.6s-1-0.7-1.6-0.7s-1.2,0.2-1.6,0.7s-0.7,1-0.7,1.6s0.2,1.2,0.7,1.6S148.6,22.2,149.2,22.2z" class="st1"/></g></g><g id="g77" class="st2" transform="translate(-0.54399872,0)"><rect id="rect79" width="21" height="21" x="105.5" y="39" class="st3"/><polygon id="polygon81" points="114.4 51.9 114.4 48 110.6 48 116 42.5 121.5 47.9 117.8 47.9 117.7 51.9" class="st6"/><rect id="rect83" width="1" height="1" x="110.5" y="55" class="st6"/><rect id="rect85" width="1" height="1" x="112.5" y="55" class="st6"/><rect id="rect87" width="1" height="1" x="114.5" y="55" class="st6"/><rect id="rect89" width="1" height="1" x="116.5" y="55" class="st6"/><rect id="rect91" width="1" height="1" x="118.5" y="55" class="st6"/><rect id="rect93" width="1" height="1" x="120.5" y="55" class="st6"/></g><g id="g95" class="st2" transform="translate(-0.68600464,0)"><rect id="rect97" width="21" height="21" x="138.7" y="39" class="st3"/><polygon id="polygon99" points="150.8 42.5 150.8 46.4 154.6 46.4 149.2 51.9 143.7 46.5 147.5 46.5 147.5 42.5" class="st6"/><rect id="rect101" width="1" height="1" x="143.7" y="55" class="st6"/><rect id="rect103" width="1" height="1" x="145.7" y="55" class="st6"/><rect id="rect105" width="1" height="1" x="147.7" y="55" class="st6"/><rect id="rect107" width="1" height="1" x="149.7" y="55" class="st6"/><rect id="rect109" width="1" height="1" x="151.7" y="55" class="st6"/><rect id="rect111" width="1" height="1" x="153.7" y="55" class="st6"/></g><g id="g113" class="st2" transform="translate(-0.54399872,0)"><rect id="rect115" width="21" height="21" x="105.5" y="72" class="st3"/><polygon id="polygon117" points="114.4 84.9 114.4 81 110.6 81 116 75.5 121.5 81 117.8 81 117.7 84.9" class="st7"/><rect id="rect119" width="1" height="1" x="110.5" y="88.1" class="st7"/><rect id="rect121" width="1" height="1" x="112.5" y="88.1" class="st7"/><rect id="rect123" width="1" height="1" x="114.5" y="88.1" class="st7"/><rect id="rect125" width="1" height="1" x="116.5" y="88.1" class="st7"/><rect id="rect127" width="1" height="1" x="118.5" y="88.1" class="st7"/><rect id="rect129" width="1" height="1" x="120.5" y="88.1" class="st7"/></g><g id="g131" class="st2" transform="translate(-0.68600464,0)"><rect id="rect133" width="21" height="21" x="138.7" y="72" class="st3"/><polygon id="polygon135" points="150.8 75.5 150.8 79.5 154.6 79.5 149.2 84.9 143.7 79.5 147.5 79.5 147.5 75.5" class="st7"/><rect id="rect137" width="1" height="1" x="143.7" y="88.1" class="st7"/><rect id="rect139" width="1" height="1" x="145.7" y="88.1" class="st7"/><rect id="rect141" width="1" height="1" x="147.7" y="88.1" class="st7"/><rect id="rect143" width="1" height="1" x="149.7" y="88.1" class="st7"/><rect id="rect145" width="1" height="1" x="151.7" y="88.1" class="st7"/><rect id="rect147" width="1" height="1" x="153.7" y="88.1" class="st7"/></g><g id="g149" transform="translate(-0.40299988,0)"><path id="path151" d="M87.4,22.1" class="st1"/><rect id="rect153" width="21" height="21" x="72.4" y="6.1" class="st0"/><polygon id="polygon155" points="83.4 10.1 84.4 10.1 88.4 14.1 88.4 15.1 87.4 15.1 83.4 15.1" class="st8"/><polygon id="polygon157" points="78.4 11.1 78.4 22.1 87.4 22.1 87.4 14.9 88.4 14.9 88.4 23.1 77.4 23.1 77.4 10.1 83.6 10.1 83.6 11.1" class="st8"/><rect id="rect159" width="1" height="1" x="79.4" y="12.1" class="st8"/><rect id="rect161" width="1" height="1" x="81.4" y="12.1" class="st8"/><rect id="rect163" width="1" height="1" x="79.4" y="14.1" class="st8"/><rect id="rect165" width="1" height="1" x="81.4" y="14.1" class="st8"/><rect id="rect167" width="1" height="1" x="79.4" y="16.1" class="st8"/><rect id="rect169" width="1" height="1" x="81.4" y="16.1" class="st8"/><rect id="rect171" width="1" height="1" x="83.4" y="16.1" class="st8"/><rect id="rect173" width="1" height="1" x="85.4" y="16.1" class="st8"/><rect id="rect175" width="1" height="1" x="79.4" y="18.1" class="st8"/><rect id="rect177" width="1" height="1" x="81.4" y="18.1" class="st8"/><rect id="rect179" width="1" height="1" x="79.4" y="20.1" class="st8"/><rect id="rect181" width="1" height="1" x="81.4" y="20.1" class="st8"/><rect id="rect183" width="1" height="1" x="83.4" y="18.1" class="st8"/><rect id="rect185" width="1" height="1" x="85.4" y="18.1" class="st8"/><rect id="rect187" width="1" height="1" x="83.4" y="20.1" class="st8"/><rect id="rect189" width="1" height="1" x="85.4" y="20.1" class="st8"/><g><path d="M89.7,13.2v11.5c0,0.2-0.1,0.4-0.2,0.6s-0.4,0.2-0.6,0.2H77c-0.2,0-0.4-0.1-0.6-0.2s-0.2-0.4-0.2-0.6V8.5 c0-0.2,0.1-0.4,0.2-0.6c0.2-0.2,0.4-0.2,0.6-0.2h7v4.8c0,0.2,0.1,0.4,0.2,0.6s0.4,0.2,0.6,0.2H89.7z M86.4,17.9 c-0.1-0.1-0.2-0.1-0.3-0.1H84v-2.1c0-0.1,0-0.2-0.1-0.3s-0.2-0.1-0.3-0.1h-1.4c-0.1,0-0.2,0-0.3,0.1s-0.1,0.2-0.1,0.3v2.1h-2.1 c-0.1,0-0.2,0-0.3,0.1s-0.1,0.2-0.1,0.3v1.4c0,0.1,0,0.2,0.1,0.3s0.2,0.1,0.3,0.1h2.1v2.1c0,0.1,0,0.2,0.1,0.3s0.2,0.1,0.3,0.1 h1.4c0.1,0,0.2,0,0.3-0.1s0.1-0.2,0.1-0.3V20h2.1c0.1,0,0.2,0,0.3-0.1s0.1-0.2,0.1-0.3v-1.4C86.6,18,86.5,17.9,86.4,17.9z M89.7,12.1h-4.5V7.6h0.2c0.2,0,0.4,0.1,0.6,0.2l3.4,3.4c0.2,0.2,0.2,0.4,0.2,0.6V12.1z" class="st1"/></g></g><g id="g191" class="st2" transform="translate(-0.40299988,0)"><path id="path193" d="M87.4,55" class="st6"/><rect id="rect195" width="21" height="21" x="72.4" y="39" class="st3"/><polygon id="polygon197" points="83.4 43 84.4 43 88.4 46.9 88.4 47.9 87.4 47.9 83.4 47.9" class="st6"/><polygon id="polygon199" points="78.4 43.9 78.4 55 87.4 55 87.4 47.7 88.4 47.7 88.4 56 77.4 56 77.4 43 83.6 43 83.6 44" class="st6"/><rect id="rect201" width="1" height="1" x="79.4" y="45" class="st6"/><rect id="rect203" width="1" height="1" x="81.4" y="45" class="st6"/><rect id="rect205" width="1" height="1" x="79.4" y="47" class="st6"/><rect id="rect207" width="1" height="1" x="81.4" y="47" class="st6"/><rect id="rect209" width="1" height="1" x="79.4" y="49" class="st6"/><rect id="rect211" width="1" height="1" x="81.4" y="49" class="st6"/><rect id="rect213" width="1" height="1" x="83.4" y="49" class="st6"/><rect id="rect215" width="1" height="1" x="85.4" y="49" class="st6"/><rect id="rect217" width="1" height="1" x="79.4" y="51" class="st6"/><rect id="rect219" width="1" height="1" x="81.4" y="51" class="st6"/><rect id="rect221" width="1" height="1" x="79.4" y="53" class="st6"/><rect id="rect223" width="1" height="1" x="81.4" y="53" class="st6"/><rect id="rect225" width="1" height="1" x="83.4" y="51" class="st6"/><rect id="rect227" width="1" height="1" x="85.4" y="51" class="st6"/><rect id="rect229" width="1" height="1" x="83.4" y="53" class="st6"/><rect id="rect231" width="1" height="1" x="85.4" y="53" class="st6"/></g><g id="g233" class="st2" transform="translate(-0.40299988,0)"><path id="path235" d="M87.4,88" class="st7"/><rect id="rect237" width="21" height="21" x="72.4" y="72" class="st3"/><polygon id="polygon239" points="83.4 76 84.4 76 88.4 79.9 88.4 80.9 87.4 80.9 83.4 80.9" class="st7"/><polygon id="polygon241" points="78.4 77 78.4 88 87.4 88 87.4 80.7 88.4 80.7 88.4 89 77.4 89 77.4 76 83.6 76 83.6 77" class="st7"/><rect id="rect243" width="1" height="1" x="79.4" y="78" class="st7"/><rect id="rect245" width="1" height="1" x="81.4" y="78" class="st7"/><rect id="rect247" width="1" height="1" x="79.4" y="80" class="st7"/><rect id="rect249" width="1" height="1" x="81.4" y="80" class="st7"/><rect id="rect251" width="1" height="1" x="79.4" y="82" class="st7"/><rect id="rect253" width="1" height="1" x="81.4" y="82" class="st7"/><rect id="rect255" width="1" height="1" x="83.4" y="82" class="st7"/><rect id="rect257" width="1" height="1" x="85.4" y="82" class="st7"/><rect id="rect259" width="1" height="1" x="79.4" y="84" class="st7"/><rect id="rect261" width="1" height="1" x="81.4" y="84" class="st7"/><rect id="rect263" width="1" height="1" x="79.4" y="86" class="st7"/><rect id="rect265" width="1" height="1" x="81.4" y="86" class="st7"/><rect id="rect267" width="1" height="1" x="83.4" y="84" class="st7"/><rect id="rect269" width="1" height="1" x="85.4" y="84" class="st7"/><rect id="rect271" width="1" height="1" x="83.4" y="86" class="st7"/><rect id="rect273" width="1" height="1" x="85.4" y="86" class="st7"/></g><g id="g275" transform="translate(-0.82800293,0)"><rect id="rect277" width="21" height="21" x="171.8" y="6.1" class="st0"/><rect id="rect279" width="1" height="1" x="187.8" y="16.1" class="st8"/><rect id="rect281" width="1" height="1" x="189.8" y="16.1" class="st8"/><rect id="rect283" width="1" height="1" x="174.8" y="16.1" class="st8"/><circle id="circle285" cx="181.8" cy="16.1" r="4.1" class="st9"/><rect id="rect287" width="4.4" height="2.7" x="175" y="19.3" class="st8" transform="matrix(0.7224 -0.6915 0.6915 0.7224 34.9244 128.2848)"/><rect id="rect289" width="2" height="2" x="180.8" y="15.1" class="st8"/><path d="M173.8,9.1h17c0.8,0,1.5,0.7,1.5,1.5v12c0,0.8-0.7,1.5-1.5,1.5h-17c-0.8,0-1.5-0.7-1.5-1.5v-12 C172.3,9.8,173,9.1,173.8,9.1z" class="st1"/><g><path d="M177.1,20.9c-0.1,0.1-0.2,0.1-0.3,0.1s-0.3,0-0.3-0.1l-0.5-0.5c-0.1-0.1-0.1-0.2-0.1-0.3s0-0.3,0.1-0.3 l3.2-3.2l-3.2-3.2c-0.1-0.1-0.1-0.2-0.1-0.3c0-0.1,0-0.3,0.1-0.3l0.5-0.5c0.1-0.1,0.2-0.1,0.3-0.1s0.3,0,0.3,0.1l4,4 c0.1,0.1,0.1,0.2,0.1,0.3s0,0.3-0.1,0.3L177.1,20.9z M188.9,20c0-0.1,0-0.3-0.1-0.3s-0.2-0.1-0.3-0.1h-6.3c-0.1,0-0.3,0-0.3,0.1 s-0.1,0.2-0.1,0.3v0.7c0,0.1,0,0.3,0.1,0.3s0.2,0.1,0.3,0.1h6.3c0.1,0,0.3,0,0.3-0.1s0.1-0.2,0.1-0.3V20z" class="st10"/></g></g><g id="g5_1_" transform="translate(-0.12000084,0)"><circle id="circle7_1_" cx="16.6" cy="49.5" r="12" class="st0"/><g><path d="M7.9,50.1c-0.2-0.2-0.2-0.4-0.2-0.6s0.1-0.5,0.2-0.6l1.3-1.3c0.2-0.2,0.4-0.3,0.6-0.3s0.5,0.1,0.7,0.3 l3.9,3.9l8.4-8.4c0.2-0.2,0.4-0.3,0.7-0.3s0.5,0.1,0.6,0.3l1.3,1.3c0.2,0.2,0.2,0.4,0.2,0.6s-0.1,0.5-0.2,0.6L15,55.9 c-0.2,0.2-0.4,0.3-0.6,0.3s-0.5-0.1-0.6-0.3L7.9,50.1z" class="st11"/></g></g><g id="g23_1_" transform="translate(-0.26100159,0)"><circle id="circle25_1_" cx="49.8" cy="49.5" r="12" class="st0"/><g><path d="M41.9,47.8c0-0.2,0.1-0.4,0.2-0.6s0.4-0.2,0.6-0.2h7v-3.7c0-0.2,0.1-0.4,0.2-0.6s0.4-0.2,0.6-0.2 s0.4,0.1,0.6,0.2l6.2,6.2c0.2,0.2,0.2,0.4,0.2,0.6s-0.1,0.4-0.2,0.6l-6.2,6.2c-0.2,0.2-0.4,0.2-0.6,0.2s-0.4-0.1-0.6-0.2 s-0.2-0.4-0.2-0.6V52h-7c-0.2,0-0.4-0.1-0.6-0.2s-0.2-0.4-0.2-0.6V47.8z" class="st11"/></g></g><g id="g41_1_" transform="translate(-0.54399872,0)"><rect id="rect43_1_" width="21" height="21" x="105.5" y="39" class="st0"/><polygon id="polygon45_1_" points="114.4 51.9 114.4 48 110.6 48 116 42.5 121.5 47.9 117.8 47.9 117.7 51.9" class="st8"/><rect id="rect47_1_" width="1" height="1" x="110.5" y="55" class="st8"/><rect id="rect49_1_" width="1" height="1" x="112.5" y="55" class="st8"/><rect id="rect51_1_" width="1" height="1" x="114.5" y="55" class="st8"/><rect id="rect53_1_" width="1" height="1" x="116.5" y="55" class="st8"/><rect id="rect55_1_" width="1" height="1" x="118.5" y="55" class="st8"/><rect id="rect57_1_" width="1" height="1" x="120.5" y="55" class="st8"/><g><path d="M111.3,48.3c-0.6,0-1.2,0.2-1.7,0.5s-0.9,0.7-1.2,1.2l-2.4,4.1v-9.8c0-0.5,0.2-0.9,0.5-1.2s0.7-0.5,1.2-0.5 h5.6l2.2,2.2h5.6c0.5,0,0.9,0.2,1.2,0.5s0.5,0.7,0.5,1.2v1.7H111.3z M126.1,50.7c0.2-0.3,0.2-0.6,0-0.8c-0.2-0.3-0.4-0.4-0.7-0.4 h-14.1c-0.4,0-0.8,0.1-1.1,0.3s-0.6,0.5-0.8,0.8l-2.6,4.4c-0.2,0.3-0.2,0.6,0,0.8s0.4,0.4,0.7,0.4h14.1c0.4,0,0.8-0.1,1.1-0.3 s0.6-0.5,0.8-0.8L126.1,50.7z" class="st11"/></g></g><g id="g59_1_" transform="translate(-0.68600464,0)"><rect id="rect61_1_" width="21" height="21" x="138.7" y="39" class="st0"/><polygon id="polygon63_1_" points="150.8 42.5 150.8 46.4 154.6 46.4 149.2 51.9 143.7 46.5 147.5 46.5 147.5 42.5" class="st8"/><rect id="rect65_1_" width="1" height="1" x="143.7" y="55" class="st8"/><rect id="rect67_1_" width="1" height="1" x="145.7" y="55" class="st8"/><rect id="rect69_1_" width="1" height="1" x="147.7" y="55" class="st8"/><rect id="rect71_1_" width="1" height="1" x="149.7" y="55" class="st8"/><rect id="rect73_1_" width="1" height="1" x="151.7" y="55" class="st8"/><rect id="rect75_1_" width="1" height="1" x="153.7" y="55" class="st8"/><g><path d="M156.6,45c0.3,0.3,0.5,0.7,0.5,1.2v9.4c0,0.5-0.2,0.9-0.5,1.2s-0.7,0.5-1.2,0.5H143c-0.5,0-0.9-0.2-1.2-0.5 s-0.5-0.7-0.5-1.2V43.3c0-0.5,0.2-0.9,0.5-1.2s0.7-0.5,1.2-0.5h9.4c0.5,0,0.9,0.2,1.2,0.5L156.6,45z M152.6,44.4 c0-0.1,0-0.2-0.1-0.3l-0.1-0.1c-0.1-0.1-0.2-0.1-0.3-0.1H144c-0.1,0-0.2,0-0.3,0.1s-0.1,0.2-0.1,0.3v3.7c0,0.1,0,0.2,0.1,0.3 s0.2,0.1,0.3,0.1h8.2c0.1,0,0.2,0,0.3-0.1s0.1-0.2,0.1-0.3V44.4z M149.2,55.1c0.6,0,1.2-0.2,1.6-0.7s0.7-1,0.7-1.6 s-0.2-1.2-0.7-1.6s-1-0.7-1.6-0.7s-1.2,0.2-1.6,0.7s-0.7,1-0.7,1.6s0.2,1.2,0.7,1.6S148.6,55.1,149.2,55.1z" class="st11"/></g></g><g id="g149_1_" transform="translate(-0.40299988,0)"><path id="path151_1_" d="M87.4,55" class="st1"/><rect id="rect153_1_" width="21" height="21" x="72.4" y="39" class="st0"/><polygon id="polygon155_1_" points="83.4 43 84.4 43 88.4 46.9 88.4 47.9 87.4 47.9 83.4 47.9" class="st8"/><polygon id="polygon157_1_" points="78.4 43.9 78.4 55 87.4 55 87.4 47.7 88.4 47.7 88.4 56 77.4 56 77.4 43 83.6 43 83.6 43.9" class="st8"/><rect id="rect159_1_" width="1" height="1" x="79.4" y="45" class="st8"/><rect id="rect161_1_" width="1" height="1" x="81.4" y="45" class="st8"/><rect id="rect163_1_" width="1" height="1" x="79.4" y="47" class="st8"/><rect id="rect165_1_" width="1" height="1" x="81.4" y="47" class="st8"/><rect id="rect167_1_" width="1" height="1" x="79.4" y="49" class="st8"/><rect id="rect169_1_" width="1" height="1" x="81.4" y="49" class="st8"/><rect id="rect171_1_" width="1" height="1" x="83.4" y="49" class="st8"/><rect id="rect173_1_" width="1" height="1" x="85.4" y="49" class="st8"/><rect id="rect175_1_" width="1" height="1" x="79.4" y="51" class="st8"/><rect id="rect177_1_" width="1" height="1" x="81.4" y="51" class="st8"/><rect id="rect179_1_" width="1" height="1" x="79.4" y="53" class="st8"/><rect id="rect181_1_" width="1" height="1" x="81.4" y="53" class="st8"/><rect id="rect183_1_" width="1" height="1" x="83.4" y="51" class="st8"/><rect id="rect185_1_" width="1" height="1" x="85.4" y="51" class="st8"/><rect id="rect187_1_" width="1" height="1" x="83.4" y="53" class="st8"/><rect id="rect189_1_" width="1" height="1" x="85.4" y="53" class="st8"/><g><path d="M89.7,46.1v11.5c0,0.2-0.1,0.4-0.2,0.6s-0.4,0.2-0.6,0.2H77c-0.2,0-0.4-0.1-0.6-0.2s-0.2-0.4-0.2-0.6V41.3 c0-0.2,0.1-0.4,0.2-0.6s0.4-0.2,0.6-0.2h7v4.8c0,0.2,0.1,0.4,0.2,0.6s0.4,0.2,0.6,0.2H89.7z M86.4,50.7c-0.1-0.1-0.2-0.1-0.3-0.1 H84v-2.1c0-0.1,0-0.2-0.1-0.3s-0.2-0.1-0.3-0.1h-1.4c-0.1,0-0.2,0-0.3,0.1s-0.1,0.2-0.1,0.3v2.1h-2.1c-0.1,0-0.2,0-0.3,0.1 s-0.1,0.2-0.1,0.3v1.4c0,0.1,0,0.2,0.1,0.3s0.2,0.1,0.3,0.1h2.1v2.1c0,0.1,0,0.2,0.1,0.3s0.2,0.1,0.3,0.1h1.4c0.1,0,0.2,0,0.3-0.1 s0.1-0.2,0.1-0.3v-2.1h2.1c0.1,0,0.2,0,0.3-0.1s0.1-0.2,0.1-0.3V51C86.6,50.9,86.5,50.8,86.4,50.7z M89.7,45h-4.5v-4.5h0.2 c0.2,0,0.4,0.1,0.6,0.2l3.4,3.4c0.2,0.2,0.2,0.4,0.2,0.6V45z" class="st11"/></g></g><g id="g275_1_" transform="translate(-0.82800293,0)"><rect id="rect277_1_" width="21" height="21" x="171.8" y="39" class="st0"/><rect id="rect279_1_" width="1" height="1" x="187.8" y="49" class="st8"/><rect id="rect281_1_" width="1" height="1" x="189.8" y="49" class="st8"/><rect id="rect283_1_" width="1" height="1" x="174.8" y="49" class="st8"/><circle id="circle285_1_" cx="181.8" cy="49" r="4.1" class="st9"/><rect id="rect287_1_" width="4.4" height="2.7" x="175" y="52.2" class="st8" transform="matrix(0.7224 -0.6915 0.6915 0.7224 12.2048 137.406)"/><rect id="rect289_1_" width="2" height="2" x="180.8" y="48" class="st8"/><path d="M173.8,42h17c0.8,0,1.5,0.7,1.5,1.5v12c0,0.8-0.7,1.5-1.5,1.5h-17c-0.8,0-1.5-0.7-1.5-1.5v-12 C172.3,42.6,173,42,173.8,42z" class="st11"/><g><path d="M177.1,53.7c-0.1,0.1-0.2,0.1-0.3,0.1s-0.3,0-0.3-0.1l-0.5-0.5c-0.1-0.1-0.1-0.2-0.1-0.3 c0-0.1,0-0.3,0.1-0.3l3.2-3.2l-3.2-3.2c-0.1-0.1-0.1-0.2-0.1-0.3c0-0.1,0-0.3,0.1-0.3l0.5-0.5c0.1-0.1,0.2-0.1,0.3-0.1 s0.3,0,0.3,0.1l4,4c0.1,0.1,0.1,0.2,0.1,0.3c0,0.1,0,0.3-0.1,0.3L177.1,53.7z M188.9,52.9c0-0.1,0-0.3-0.1-0.3 c-0.1-0.1-0.2-0.1-0.3-0.1h-6.3c-0.1,0-0.3,0-0.3,0.1c-0.1,0.1-0.1,0.2-0.1,0.3v0.7c0,0.1,0,0.3,0.1,0.3c0.1,0.1,0.2,0.1,0.3,0.1 h6.3c0.1,0,0.3,0,0.3-0.1c0.1-0.1,0.1-0.2,0.1-0.3V52.9z" class="st10"/></g></g><g id="g5_2_" transform="translate(-0.12000084,0)"><circle id="circle7_2_" cx="16.6" cy="82.5" r="12" class="st0"/><g><path d="M7.9,83.1c-0.2-0.2-0.2-0.4-0.2-0.6s0.1-0.5,0.2-0.6l1.3-1.3c0.2-0.2,0.4-0.3,0.6-0.3s0.5,0.1,0.7,0.3 l3.9,3.9l8.4-8.4c0.2-0.2,0.4-0.3,0.7-0.3s0.5,0.1,0.6,0.3l1.3,1.3c0.2,0.2,0.2,0.4,0.2,0.6s-0.1,0.5-0.2,0.6L15,88.9 c-0.2,0.2-0.4,0.3-0.6,0.3s-0.5-0.1-0.6-0.3L7.9,83.1z" class="st12"/></g></g><g id="g23_2_" transform="translate(-0.26100159,0)"><circle id="circle25_2_" cx="49.8" cy="82.5" r="12" class="st0"/><g><path d="M41.9,80.8c0-0.2,0.1-0.4,0.2-0.6s0.4-0.2,0.6-0.2h7v-3.7c0-0.2,0.1-0.4,0.2-0.6s0.4-0.2,0.6-0.2 s0.4,0.1,0.6,0.2l6.2,6.2c0.2,0.2,0.2,0.4,0.2,0.6s-0.1,0.4-0.2,0.6l-6.2,6.2c-0.2,0.2-0.4,0.2-0.6,0.2s-0.4-0.1-0.6-0.2 s-0.2-0.4-0.2-0.6V85h-7c-0.2,0-0.4-0.1-0.6-0.2s-0.2-0.4-0.2-0.6V80.8z" class="st12"/></g></g><g id="g41_2_" transform="translate(-0.54399872,0)"><rect id="rect43_2_" width="21" height="21" x="105.5" y="72" class="st0"/><polygon id="polygon45_2_" points="114.4 85 114.4 81 110.6 81 116 75.5 121.5 81 117.8 81 117.7 85" class="st8"/><rect id="rect47_2_" width="1" height="1" x="110.5" y="88.1" class="st8"/><rect id="rect49_2_" width="1" height="1" x="112.5" y="88.1" class="st8"/><rect id="rect51_2_" width="1" height="1" x="114.5" y="88.1" class="st8"/><rect id="rect53_2_" width="1" height="1" x="116.5" y="88.1" class="st8"/><rect id="rect55_2_" width="1" height="1" x="118.5" y="88.1" class="st8"/><rect id="rect57_2_" width="1" height="1" x="120.5" y="88.1" class="st8"/><g><path d="M111.3,81.4c-0.6,0-1.2,0.2-1.7,0.5s-0.9,0.7-1.2,1.2l-2.4,4.1v-9.8c0-0.5,0.2-0.9,0.5-1.2s0.7-0.5,1.2-0.5 h5.6l2.2,2.2h5.6c0.5,0,0.9,0.2,1.2,0.5s0.5,0.7,0.5,1.2v1.7H111.3z M126.1,83.7c0.2-0.3,0.2-0.6,0-0.8s-0.4-0.4-0.7-0.4h-14.1 c-0.4,0-0.8,0.1-1.1,0.3s-0.6,0.5-0.8,0.8l-2.6,4.4c-0.2,0.3-0.2,0.6,0,0.8s0.4,0.4,0.7,0.4h14.1c0.4,0,0.8-0.1,1.1-0.3 s0.6-0.5,0.8-0.8L126.1,83.7z" class="st12"/></g></g><g id="g59_2_" transform="translate(-0.68600464,0)"><rect id="rect61_2_" width="21" height="21" x="138.7" y="72" class="st0"/><polygon id="polygon63_2_" points="150.8 75.5 150.8 79.5 154.6 79.5 149.2 85 143.7 79.5 147.5 79.5 147.5 75.5" class="st8"/><rect id="rect65_2_" width="1" height="1" x="143.7" y="88.1" class="st8"/><rect id="rect67_2_" width="1" height="1" x="145.7" y="88.1" class="st8"/><rect id="rect69_2_" width="1" height="1" x="147.7" y="88.1" class="st8"/><rect id="rect71_2_" width="1" height="1" x="149.7" y="88.1" class="st8"/><rect id="rect73_2_" width="1" height="1" x="151.7" y="88.1" class="st8"/><rect id="rect75_2_" width="1" height="1" x="153.7" y="88.1" class="st8"/><g><path d="M156.6,78c0.3,0.3,0.5,0.7,0.5,1.2v9.4c0,0.5-0.2,0.9-0.5,1.2s-0.7,0.5-1.2,0.5H143c-0.5,0-0.9-0.2-1.2-0.5 s-0.5-0.7-0.5-1.2V76.3c0-0.5,0.2-0.9,0.5-1.2s0.7-0.5,1.2-0.5h9.4c0.5,0,0.9,0.2,1.2,0.5L156.6,78z M152.6,77.4 c0-0.1,0-0.2-0.1-0.3l-0.1-0.1c-0.1-0.1-0.2-0.1-0.3-0.1H144c-0.1,0-0.2,0-0.3,0.1s-0.1,0.2-0.1,0.3v3.7c0,0.1,0,0.2,0.1,0.3 s0.2,0.1,0.3,0.1h8.2c0.1,0,0.2,0,0.3-0.1s0.1-0.2,0.1-0.3V77.4z M149.2,88.1c0.6,0,1.2-0.2,1.6-0.7s0.7-1,0.7-1.6 s-0.2-1.2-0.7-1.6s-1-0.7-1.6-0.7s-1.2,0.2-1.6,0.7s-0.7,1-0.7,1.6s0.2,1.2,0.7,1.6S148.6,88.1,149.2,88.1z" class="st12"/></g></g><g id="g149_2_" transform="translate(-0.40299988,0)"><path id="path151_2_" d="M87.4,88" class="st1"/><rect id="rect153_2_" width="21" height="21" x="72.4" y="72" class="st0"/><polygon id="polygon155_2_" points="83.4 76 84.4 76 88.4 79.9 88.4 80.9 87.4 80.9 83.4 80.9" class="st8"/><polygon id="polygon157_2_" points="78.4 77 78.4 88 87.4 88 87.4 80.7 88.4 80.7 88.4 89 77.4 89 77.4 76 83.6 76 83.6 77" class="st8"/><rect id="rect159_2_" width="1" height="1" x="79.4" y="78" class="st8"/><rect id="rect161_2_" width="1" height="1" x="81.4" y="78" class="st8"/><rect id="rect163_2_" width="1" height="1" x="79.4" y="80" class="st8"/><rect id="rect165_2_" width="1" height="1" x="81.4" y="80" class="st8"/><rect id="rect167_2_" width="1" height="1" x="79.4" y="82" class="st8"/><rect id="rect169_2_" width="1" height="1" x="81.4" y="82" class="st8"/><rect id="rect171_2_" width="1" height="1" x="83.4" y="82" class="st8"/><rect id="rect173_2_" width="1" height="1" x="85.4" y="82" class="st8"/><rect id="rect175_2_" width="1" height="1" x="79.4" y="84" class="st8"/><rect id="rect177_2_" width="1" height="1" x="81.4" y="84" class="st8"/><rect id="rect179_2_" width="1" height="1" x="79.4" y="86" class="st8"/><rect id="rect181_2_" width="1" height="1" x="81.4" y="86" class="st8"/><rect id="rect183_2_" width="1" height="1" x="83.4" y="84" class="st8"/><rect id="rect185_2_" width="1" height="1" x="85.4" y="84" class="st8"/><rect id="rect187_2_" width="1" height="1" x="83.4" y="86" class="st8"/><rect id="rect189_2_" width="1" height="1" x="85.4" y="86" class="st8"/><g><path d="M89.7,79.1v11.5c0,0.2-0.1,0.4-0.2,0.6s-0.4,0.2-0.6,0.2H77c-0.2,0-0.4-0.1-0.6-0.2s-0.2-0.4-0.2-0.6V74.3 c0-0.2,0.1-0.4,0.2-0.6s0.4-0.2,0.6-0.2h7v4.8c0,0.2,0.1,0.4,0.2,0.6s0.4,0.2,0.6,0.2H89.7z M86.4,83.7c-0.1-0.1-0.2-0.1-0.3-0.1 H84v-2.1c0-0.1,0-0.2-0.1-0.3s-0.2-0.1-0.3-0.1h-1.4c-0.1,0-0.2,0-0.3,0.1s-0.1,0.2-0.1,0.3v2.1h-2.1c-0.1,0-0.2,0-0.3,0.1 s-0.1,0.2-0.1,0.3v1.4c0,0.1,0,0.2,0.1,0.3s0.2,0.1,0.3,0.1h2.1V88c0,0.1,0,0.2,0.1,0.3s0.2,0.1,0.3,0.1h1.4c0.1,0,0.2,0,0.3-0.1 S84,88.1,84,88v-2.1h2.1c0.1,0,0.2,0,0.3-0.1s0.1-0.2,0.1-0.3V84C86.6,83.9,86.5,83.8,86.4,83.7z M89.7,78h-4.5v-4.5h0.2 c0.2,0,0.4,0.1,0.6,0.2l3.4,3.4c0.2,0.2,0.2,0.4,0.2,0.6V78z" class="st12"/></g></g><g id="g275_2_" transform="translate(-0.82800293,0)"><rect id="rect277_2_" width="21" height="21" x="171.8" y="72" class="st0"/><rect id="rect279_2_" width="1" height="1" x="187.8" y="82" class="st8"/><rect id="rect281_2_" width="1" height="1" x="189.8" y="82" class="st8"/><rect id="rect283_2_" width="1" height="1" x="174.8" y="82" class="st8"/><circle id="circle285_2_" cx="181.8" cy="82" r="4.1" class="st9"/><rect id="rect287_2_" width="4.4" height="2.7" x="175" y="85.2" class="st8" transform="matrix(0.7224 -0.6915 0.6915 0.7224 -10.6226 146.5706)"/><rect id="rect289_2_" width="2" height="2" x="180.8" y="81" class="st8"/><path d="M173.8,75h17c0.8,0,1.5,0.7,1.5,1.5v12c0,0.8-0.7,1.5-1.5,1.5h-17c-0.8,0-1.5-0.7-1.5-1.5v-12 C172.3,75.6,173,75,173.8,75z" class="st12"/><g><path d="M177.1,86.8c-0.1,0.1-0.2,0.1-0.3,0.1s-0.3,0-0.3-0.1l-0.5-0.5c-0.1-0.1-0.1-0.2-0.1-0.3 c0-0.1,0-0.3,0.1-0.3l3.2-3.2l-3.2-3.2c-0.1-0.1-0.1-0.2-0.1-0.3c0-0.1,0-0.3,0.1-0.3l0.5-0.5c0.1-0.1,0.2-0.1,0.3-0.1 s0.3,0,0.3,0.1l4,4c0.1,0.1,0.1,0.2,0.1,0.3c0,0.1,0,0.3-0.1,0.3L177.1,86.8z M188.9,85.9c0-0.1,0-0.3-0.1-0.3 c-0.1-0.1-0.2-0.1-0.3-0.1h-6.3c-0.1,0-0.3,0-0.3,0.1c-0.1,0.1-0.1,0.2-0.1,0.3v0.7c0,0.1,0,0.3,0.1,0.3s0.2,0.1,0.3,0.1h6.3 c0.1,0,0.3,0,0.3-0.1c0.1-0.1,0.1-0.2,0.1-0.3V85.9z" class="st10"/></g></g><g id="g291" class="st2" transform="translate(-0.82800293,0)"><rect id="rect293" width="21" height="21" x="171.8" y="39" class="st3"/><rect id="rect295" width="1" height="1" x="187.8" y="49" class="st6"/><rect id="rect297" width="1" height="1" x="189.8" y="49" class="st6"/><rect id="rect299" width="1" height="1" x="174.8" y="49" class="st6"/><circle id="circle301" cx="181.8" cy="49" r="4.1" class="st13"/><rect id="rect303" width="4.4" height="2.7" x="175" y="52.2" class="st6" transform="matrix(0.7224 -0.6915 0.6915 0.7224 12.2049 137.4047)"/><rect id="rect305" width="2" height="2" x="180.8" y="48" class="st6"/></g><g id="g307" class="st2" transform="translate(-0.82800293,0)"><rect id="rect309" width="21" height="21" x="171.8" y="72" class="st3"/><rect id="rect311" width="1" height="1" x="187.8" y="82" class="st7"/><rect id="rect313" width="1" height="1" x="189.8" y="82" class="st7"/><rect id="rect315" width="1" height="1" x="174.8" y="82" class="st7"/><circle id="circle317" cx="181.8" cy="82" r="4.1" class="st14"/><rect id="rect319" width="4.4" height="2.7" x="175" y="85.2" class="st7" transform="matrix(0.7224 -0.6915 0.6915 0.7224 -10.6224 146.5679)"/><rect id="rect321" width="2" height="2" x="180.8" y="81" class="st7"/></g></svg>