<?xml version="1.0" encoding="utf-8"?>
<!-- Generator: Adobe Illustrator 23.0.1, SVG Export Plug-In . SVG Version: 6.00 Build 0)  -->
<svg version="1.1" id="Layer_1" xmlns="http://www.w3.org/2000/svg" xmlns:xlink="http://www.w3.org/1999/xlink" x="0px" y="0px"
	 viewBox="0 0 20 20" style="enable-background:new 0 0 20 20;" xml:space="preserve">
<style type="text/css">
	.st0{fill:#424450;}
	.st1{fill:#F8F8F2;}
</style>
<rect class="st0" width="20" height="20"/>
<rect x="8" y="18" class="st1" width="1" height="1"/>
<rect x="9" y="17" class="st1" width="1" height="1"/>
<rect x="10" y="16" class="st1" width="1" height="1"/>
<rect x="11" y="15" class="st1" width="1" height="1"/>
<rect x="12" y="14" class="st1" width="1" height="1"/>
<rect x="13" y="13" class="st1" width="1" height="1"/>
<rect x="14" y="12" class="st1" width="1" height="1"/>
<rect x="15" y="11" class="st1" width="1" height="1"/>
<rect x="11" y="18" class="st1" width="1" height="1"/>
<rect x="12" y="17" class="st1" width="1" height="1"/>
<rect x="13" y="16" class="st1" width="1" height="1"/>
<rect x="14" y="15" class="st1" width="1" height="1"/>
<rect x="15" y="14" class="st1" width="1" height="1"/>
<rect x="14" y="18" class="st1" width="1" height="1"/>
<rect x="15" y="17" class="st1" width="1" height="1"/>
<rect x="17" y="18" class="st1" width="1" height="1"/>
<rect x="18" y="17" class="st1" width="1" height="1"/>
<rect x="16" y="16" class="st1" width="1" height="1"/>
<rect x="17" y="15" class="st1" width="1" height="1"/>
<rect x="18" y="14" class="st1" width="1" height="1"/>
<rect x="16" y="13" class="st1" width="1" height="1"/>
<rect x="17" y="12" class="st1" width="1" height="1"/>
<rect x="18" y="11" class="st1" width="1" height="1"/>
<rect x="16" y="10" class="st1" width="1" height="1"/>
<rect x="17" y="9" class="st1" width="1" height="1"/>
<rect x="18" y="8" class="st1" width="1" height="1"/>
</svg>
