<svg xmlns="http://www.w3.org/2000/svg" xmlns:xlink="http://www.w3.org/1999/xlink" id="Layer_1" x="0" y="0" version="1.1" viewBox="0 0 20 20" xml:space="preserve" style="enable-background:new 0 0 20 20"><style type="text/css">.st0{fill:#424450}.st1{fill:#f8f8f2}</style><rect width="20" height="20" class="st0"/><rect width="1" height="1" x="8" y="18" class="st1"/><rect width="1" height="1" x="9" y="17" class="st1"/><rect width="1" height="1" x="10" y="16" class="st1"/><rect width="1" height="1" x="11" y="15" class="st1"/><rect width="1" height="1" x="12" y="14" class="st1"/><rect width="1" height="1" x="13" y="13" class="st1"/><rect width="1" height="1" x="14" y="12" class="st1"/><rect width="1" height="1" x="15" y="11" class="st1"/><rect width="1" height="1" x="11" y="18" class="st1"/><rect width="1" height="1" x="12" y="17" class="st1"/><rect width="1" height="1" x="13" y="16" class="st1"/><rect width="1" height="1" x="14" y="15" class="st1"/><rect width="1" height="1" x="15" y="14" class="st1"/><rect width="1" height="1" x="14" y="18" class="st1"/><rect width="1" height="1" x="15" y="17" class="st1"/><rect width="1" height="1" x="17" y="18" class="st1"/><rect width="1" height="1" x="18" y="17" class="st1"/><rect width="1" height="1" x="16" y="16" class="st1"/><rect width="1" height="1" x="17" y="15" class="st1"/><rect width="1" height="1" x="18" y="14" class="st1"/><rect width="1" height="1" x="16" y="13" class="st1"/><rect width="1" height="1" x="17" y="12" class="st1"/><rect width="1" height="1" x="18" y="11" class="st1"/><rect width="1" height="1" x="16" y="10" class="st1"/><rect width="1" height="1" x="17" y="9" class="st1"/><rect width="1" height="1" x="18" y="8" class="st1"/></svg>